<?xml version="1.0" standalone="no"?>
<!DOCTYPE svg PUBLIC "-//W3C//DTD SVG 20010904//EN"
 "http://www.w3.org/TR/2001/REC-SVG-20010904/DTD/svg10.dtd">
<svg version="1.0" xmlns="http://www.w3.org/2000/svg"
 width="175.000000pt" height="222.000000pt" viewBox="0 0 175.000000 222.000000"
 preserveAspectRatio="xMidYMid meet">
<metadata>
Created by potrace 1.16, written by Peter Selinger 2001-2019
</metadata>
<g transform="translate(0.000000,222.000000) scale(0.100000,-0.100000)"
fill="#000000" stroke="none">
<path d="M714 1079 c-17 -5 -44 -21 -59 -36 -93 -92 -64 -239 55 -286 59 -23
171 -6 184 28 3 10 -7 8 -37 -6 -80 -36 -151 -16 -192 56 -46 77 -28 175 38
215 44 28 125 27 161 -1 l26 -20 0 24 c0 22 -5 25 -52 31 -65 7 -85 7 -124 -5z"/>
<path d="M1331 1068 c-64 -33 -84 -66 -89 -142 -4 -54 -1 -69 21 -103 32 -50
86 -77 152 -76 62 1 100 15 116 44 l12 22 -27 -20 c-58 -46 -154 -38 -200 18
-59 69 -56 161 5 223 39 38 39 38 105 34 47 -3 70 -9 79 -21 7 -9 15 -17 18
-17 5 0 1 39 -5 46 -2 1 -34 5 -73 9 -61 6 -76 3 -114 -17z"/>
<path d="M379 1066 c17 -20 18 -281 1 -301 -11 -13 -1 -15 89 -15 l100 0 17
33 17 32 -28 -25 c-20 -19 -38 -25 -69 -25 -62 0 -76 16 -76 87 l0 60 59 -4
c49 -3 57 -2 54 11 -3 13 -16 15 -58 13 l-55 -4 0 71 0 71 46 0 c25 0 54 -5
65 -10 15 -8 19 -7 19 5 0 12 -16 15 -96 15 -80 0 -95 -2 -85 -14z"/>
<path d="M945 1063 c4 -10 8 -78 10 -151 2 -106 0 -136 -12 -147 -13 -13 -9
-15 28 -15 34 0 40 3 31 12 -7 7 -12 39 -12 75 l0 63 30 0 c25 0 36 -9 69 -59
52 -77 84 -101 130 -100 35 1 36 1 8 9 -39 12 -53 25 -99 93 -35 52 -39 61
-24 69 27 15 48 66 41 99 -11 50 -47 69 -132 69 -68 0 -74 -2 -68 -17z m140
-18 c29 -28 32 -70 9 -103 -12 -17 -25 -22 -60 -22 l-44 0 0 75 0 75 35 0 c25
0 44 -8 60 -25z"/>
</g>
</svg>
