<?xml version="1.0" standalone="no"?>
<!DOCTYPE svg PUBLIC "-//W3C//DTD SVG 20010904//EN"
 "http://www.w3.org/TR/2001/REC-SVG-20010904/DTD/svg10.dtd">
<svg version="1.0" xmlns="http://www.w3.org/2000/svg"
 width="538.000000pt" height="678.000000pt" viewBox="0 0 538.000000 678.000000"
 preserveAspectRatio="xMidYMid meet">
<metadata>
Created by potrace 1.16, written by Peter Selinger 2001-2019
</metadata>
<g transform="translate(0.000000,678.000000) scale(0.100000,-0.100000)"
fill="#000000" stroke="none">
<path d="M3396 6755 c-28 -28 -41 -32 -33 -11 4 10 1 13 -9 9 -11 -4 -12 -9
-3 -19 8 -10 7 -17 -5 -30 -10 -9 -20 -13 -24 -10 -3 4 0 11 8 16 8 5 11 12 7
17 -12 11 -27 -19 -21 -42 3 -12 -3 -29 -14 -41 -10 -11 -22 -26 -25 -34 -4
-8 -4 0 -1 19 4 21 2 31 -4 27 -14 -9 -33 -66 -21 -66 5 0 9 -13 9 -30 0 -16
-4 -30 -10 -30 -5 0 -10 -13 -10 -30 0 -16 -4 -30 -10 -30 -5 0 -11 -10 -11
-22 -1 -18 -3 -17 -9 7 -6 27 -8 28 -14 10 -13 -33 -28 -69 -37 -87 -12 -23
-11 -38 1 -38 6 0 10 9 10 20 0 11 5 20 10 20 6 0 10 9 10 20 0 11 5 20 10 20
12 0 13 -22 2 -35 -5 -6 -14 -35 -21 -65 -7 -30 -17 -66 -23 -80 -22 -51 -27
-65 -31 -85 -3 -15 -5 -12 -6 8 -1 33 -17 36 -24 5 -3 -13 -9 -33 -12 -45 -5
-14 -3 -23 3 -23 6 0 13 10 15 23 3 16 5 13 6 -10 0 -18 -3 -33 -9 -33 -5 0
-10 -18 -10 -40 0 -22 -4 -40 -10 -40 -5 0 -10 -8 -10 -19 0 -10 -11 -54 -25
-97 -14 -43 -25 -91 -25 -106 0 -15 -4 -30 -10 -33 -5 -3 -10 -19 -10 -36 0
-16 -4 -29 -10 -29 -5 0 -10 -13 -10 -30 0 -16 -4 -30 -10 -30 -5 0 -10 -13
-10 -30 0 -16 -4 -30 -10 -30 -5 0 -10 -20 -10 -45 0 -25 -4 -45 -9 -45 -4 0
-11 -27 -15 -60 -4 -33 -11 -62 -16 -65 -6 -4 -10 -19 -10 -35 0 -16 -4 -32
-10 -35 -5 -3 -10 -24 -10 -45 0 -21 -4 -42 -10 -45 -5 -3 -10 -17 -10 -31 0
-13 -4 -24 -10 -24 -5 0 -11 -15 -11 -32 -2 -31 -2 -31 -6 -5 -2 15 -9 27 -14
27 -6 0 -7 -23 -3 -60 5 -42 3 -60 -5 -60 -6 0 -11 -18 -11 -45 0 -25 -5 -45
-10 -45 -6 0 -10 -6 -8 -12 5 -29 -26 -58 -62 -58 -70 0 -83 61 -81 370 4 494
3 619 -9 900 -6 162 -16 297 -21 298 -5 2 -9 28 -9 58 0 39 -3 53 -12 48 -8
-5 -9 2 -5 25 5 23 2 37 -9 48 -13 14 -14 13 -9 -13 3 -16 2 -22 -2 -14 -3 8
-22 30 -42 48 -34 31 -38 32 -118 32 -46 0 -83 -3 -83 -7 0 -11 -51 -33 -61
-27 -5 3 -6 -3 -2 -13 6 -16 5 -16 -10 -4 -15 12 -16 11 -11 -18 4 -20 3 -31
-5 -31 -6 0 -11 -13 -11 -30 0 -16 -4 -30 -9 -30 -4 0 -11 -183 -15 -407 -4
-225 -11 -428 -16 -453 -5 -25 -10 -246 -12 -491 -2 -370 -1 -449 11 -463 8
-9 11 -20 7 -23 -4 -4 -12 -1 -17 7 -9 13 -10 13 -6 0 2 -8 11 -15 20 -15 8 0
19 -4 23 -8 4 -4 16 -7 26 -7 10 0 18 -4 18 -9 0 -5 16 -12 35 -15 19 -3 51
-9 70 -12 19 -3 35 -10 35 -15 0 -5 14 -9 30 -9 17 0 30 -4 30 -9 0 -5 10 -12
23 -14 19 -4 18 -4 -5 -6 -16 0 -28 4 -28 9 0 6 -9 10 -20 10 -11 0 -20 -4
-20 -10 0 -5 9 -10 19 -10 11 0 23 -5 26 -10 4 -6 25 -8 53 -4 33 4 56 1 77
-10 17 -9 35 -16 41 -16 5 0 28 -16 50 -35 21 -20 51 -47 67 -60 15 -14 31
-25 35 -25 4 0 31 -16 59 -35 29 -19 59 -35 68 -35 8 0 15 -4 15 -10 0 -5 11
-10 25 -10 14 0 25 -4 25 -10 0 -5 11 -10 25 -10 14 0 25 -4 25 -10 0 -5 18
-10 40 -10 22 0 40 -4 40 -9 0 -4 29 -11 65 -13 77 -7 95 -19 95 -63 0 -29 -6
-36 -50 -59 -27 -14 -62 -26 -78 -26 -15 0 -33 -5 -39 -11 -16 -16 -98 -7
-235 27 -16 3 -28 10 -28 15 0 5 -9 9 -20 9 -11 0 -20 5 -20 10 0 6 -9 10 -20
10 -11 0 -20 5 -20 10 0 6 -7 10 -15 10 -8 0 -15 5 -15 10 0 6 -9 10 -20 10
-11 0 -20 5 -20 10 0 6 -23 10 -50 10 -28 0 -49 -3 -48 -7 3 -19 -15 -43 -26
-34 -8 7 -10 -16 -8 -87 2 -54 8 -99 13 -100 5 -2 9 -15 9 -28 0 -13 5 -24 10
-24 6 0 10 -10 11 -22 1 -36 68 -133 147 -214 25 -26 28 -40 10 -48 -7 -3 -4
-4 7 -2 15 3 32 -10 65 -51 25 -30 63 -73 85 -96 39 -41 75 -90 75 -102 0 -4
-7 0 -15 9 -8 8 -15 20 -15 26 0 6 -4 8 -10 5 -5 -3 -10 -3 -10 2 0 13 -50 67
-56 60 -7 -7 95 -127 107 -127 5 0 9 5 9 11 0 12 7 6 83 -84 31 -38 57 -75 57
-83 0 -9 5 -12 10 -9 16 10 12 -53 -6 -80 -11 -17 -26 -25 -45 -25 -16 0 -29
5 -29 10 0 6 -6 10 -13 10 -7 0 -67 54 -133 121 -151 153 -147 149 -135 149 6
0 16 -7 23 -15 71 -85 258 -261 258 -242 0 1 -64 66 -142 145 -101 103 -143
139 -149 130 -7 -10 -15 -6 -34 17 -137 162 -198 225 -217 225 -20 0 -58 -29
-58 -44 0 -7 11 -35 25 -62 14 -27 25 -57 25 -66 0 -10 4 -18 8 -18 5 0 14
-16 22 -35 8 -19 17 -35 22 -35 4 0 8 -9 8 -20 0 -11 5 -20 10 -20 6 0 10 -7
10 -15 0 -14 34 -82 50 -99 5 -5 6 -15 3 -22 -3 -8 0 -14 6 -14 6 0 11 -12 11
-26 0 -14 4 -23 10 -19 6 3 10 -4 10 -17 0 -22 -1 -22 -19 5 -11 18 -21 25
-25 18 -4 -6 -2 -11 3 -11 6 0 11 -8 11 -17 1 -19 22 -53 34 -53 3 0 7 10 7
23 1 20 2 20 6 2 3 -11 8 -22 12 -25 3 -3 17 -27 30 -55 13 -27 27 -58 32 -68
6 -11 5 -24 -3 -37 -10 -15 -10 -22 0 -32 9 -9 12 -7 12 11 0 12 4 19 10 16 6
-4 7 -11 4 -17 -4 -6 -2 -13 4 -17 6 -3 12 -35 13 -71 3 -63 2 -64 -27 -72
-32 -8 -64 -2 -64 13 0 5 18 9 40 9 39 0 40 1 40 36 0 21 -4 33 -10 29 -5 -3
-10 -18 -10 -32 0 -23 -3 -25 -29 -20 -15 3 -32 2 -37 -3 -6 -6 -10 6 -10 30
-2 46 -44 99 -44 55 0 -8 5 -15 10 -15 6 0 10 -7 10 -15 0 -8 5 -15 10 -15 6
0 10 -7 10 -15 0 -8 -4 -15 -10 -15 -5 0 -10 5 -10 10 0 6 -11 28 -25 50 -14
22 -25 46 -25 55 0 8 -4 15 -10 15 -5 0 -10 9 -10 20 0 11 -4 20 -10 20 -13 0
-13 37 0 45 6 3 7 -1 4 -9 -3 -9 2 -23 11 -33 17 -16 17 -16 11 7 -11 38 -28
70 -38 70 -5 0 -7 4 -3 9 3 5 0 13 -5 16 -8 5 -9 -5 -5 -32 6 -34 3 -31 -29
31 -20 39 -36 74 -36 78 0 5 -11 26 -25 48 -14 22 -25 49 -25 60 0 11 -5 20
-11 20 -7 0 -9 12 -5 35 5 25 2 42 -9 57 -12 19 -15 19 -15 5 0 -9 -4 -17 -8
-17 -10 0 -52 77 -52 94 0 23 -46 56 -77 56 -38 0 -50 -14 -56 -65 l-4 -40 -1
46 c-2 35 3 50 18 64 11 10 18 20 16 23 -3 2 -15 -6 -28 -19 -24 -25 -36 -103
-18 -114 6 -3 10 -15 10 -26 0 -29 18 -23 23 9 l4 27 2 -27 c0 -16 6 -28 11
-28 6 0 10 -13 10 -30 0 -16 5 -30 10 -30 6 0 10 -18 10 -40 0 -22 5 -40 10
-40 6 0 10 -11 10 -25 0 -14 -4 -25 -10 -25 -5 0 -10 9 -10 20 0 11 -4 20 -10
20 -5 0 -10 -9 -10 -19 0 -11 5 -23 10 -26 6 -3 10 -14 10 -23 0 -9 9 -28 20
-42 16 -20 20 -22 20 -7 0 9 -4 17 -10 17 -5 0 -10 11 -10 25 0 14 5 25 10 25
6 0 10 -10 10 -23 0 -13 3 -27 7 -31 9 -8 14 -30 20 -83 3 -24 10 -43 15 -43
7 0 8 -18 4 -51 -4 -28 -3 -56 3 -62 5 -7 11 -23 14 -37 3 -14 4 0 3 30 -2 30
-1 45 1 32 2 -12 9 -22 14 -22 5 0 9 -16 9 -35 0 -19 5 -35 10 -35 6 0 10 -8
10 -17 -1 -22 -23 -53 -39 -53 -6 0 -11 -4 -11 -10 0 -5 -10 -10 -22 -10 -16
0 -19 3 -10 8 13 9 6 42 -9 42 -5 0 -9 7 -9 15 0 8 -4 15 -10 15 -15 0 -12
-26 5 -40 8 -7 12 -16 9 -22 -9 -15 -34 12 -34 38 0 13 -4 24 -10 24 -5 0 -10
9 -10 19 0 11 -4 23 -10 26 -5 3 -10 16 -9 28 0 17 4 13 17 -15 16 -36 32 -50
32 -27 0 5 -10 31 -22 57 -15 32 -23 41 -26 30 -7 -35 -17 -22 -51 67 -23 58
-34 93 -38 118 -3 15 -9 27 -14 27 -5 0 -9 14 -9 30 0 17 -4 30 -10 30 -12 0
-14 57 -2 62 5 2 5 14 1 28 l-7 25 -7 -23 -8 -23 -13 27 c-8 14 -14 35 -14 45
0 11 -4 19 -10 19 -5 0 -10 9 -10 19 0 11 -4 23 -10 26 -5 3 -10 17 -10 29 0
13 -9 35 -21 50 -11 14 -16 26 -11 26 6 0 13 -5 15 -10 3 -6 4 -5 3 2 -1 7
-16 14 -33 16 -24 2 -36 -3 -52 -24 -11 -15 -21 -22 -21 -15 0 6 -5 11 -10 11
-12 0 -1 -53 12 -58 4 -2 8 -73 8 -158 0 -96 4 -154 10 -154 6 0 10 -50 10
-129 l0 -129 -35 -4 c-38 -4 -55 6 -55 34 0 10 -4 18 -10 18 -5 0 -10 16 -10
35 0 19 -4 35 -10 35 -6 0 -10 42 -10 105 0 63 -4 105 -10 105 -6 0 -10 30
-10 69 0 39 -5 73 -10 76 -5 3 -10 31 -10 61 0 30 -4 54 -10 54 -5 0 -10 17
-10 38 -1 20 -8 64 -16 97 -18 72 -18 73 -9 108 4 17 3 27 -3 27 -6 0 -13 -10
-15 -22 l-4 -23 -2 23 c0 12 -5 22 -11 22 -5 0 -10 9 -10 20 0 11 -4 20 -10
20 -5 0 -10 9 -10 19 0 11 -3 21 -7 23 -10 4 -51 87 -68 138 -1 3 -5 33 -10
68 -4 34 -12 65 -16 68 -5 3 -9 23 -9 45 0 21 -4 39 -10 39 -5 0 -10 18 -10
39 0 22 -5 43 -10 46 -6 3 -10 30 -10 60 0 30 -4 57 -10 60 -5 3 -10 17 -10
31 0 13 -4 24 -10 24 -5 0 -10 11 -10 24 0 13 -3 26 -7 28 -14 6 -52 127 -42
133 5 4 9 -3 9 -13 0 -16 18 -32 35 -32 2 0 -6 18 -17 40 -23 41 -33 49 -41
28 -2 -7 -3 1 -1 17 3 28 3 29 -11 11 -13 -17 -15 -18 -15 -3 0 9 -4 17 -10
17 -5 0 -10 9 -10 20 0 11 -4 20 -10 20 -5 0 -10 7 -10 16 0 14 3 14 15 4 26
-22 18 14 -9 39 -18 17 -25 19 -30 9 -4 -9 -8 -10 -12 -1 -3 6 -13 20 -22 31
-9 11 -33 39 -52 63 -45 54 -119 128 -155 154 -16 11 -34 26 -41 33 -7 6 -15
12 -19 12 -4 0 -13 7 -21 15 -21 21 4 20 27 -1 10 -9 24 -14 31 -12 21 8 -53
48 -77 42 -12 -3 -39 5 -65 20 -25 14 -53 26 -62 26 -10 0 -18 4 -18 8 0 10
-82 32 -120 32 -17 0 -30 5 -30 10 0 6 -15 10 -34 10 -19 0 -38 -4 -41 -10 -3
-5 -16 -10 -29 -10 -13 0 -38 -14 -55 -31 -39 -37 -53 -31 -17 7 14 16 23 31
20 34 -3 3 -16 -7 -30 -23 -18 -21 -22 -35 -17 -57 3 -19 1 -30 -6 -30 -6 0
-11 -17 -11 -40 0 -23 5 -40 11 -40 8 0 10 -14 6 -42 -3 -24 -3 -35 0 -25 8
29 26 20 19 -10 -5 -21 -4 -24 4 -13 9 13 12 12 22 -4 6 -11 28 -38 48 -60 20
-23 45 -52 56 -65 10 -13 34 -41 51 -61 18 -20 30 -40 26 -43 -3 -4 -19 8 -34
26 -31 34 -41 24 -12 -11 35 -40 48 -58 77 -100 35 -51 51 -64 31 -25 -8 15
-15 35 -14 43 0 13 1 13 6 0 3 -8 14 -23 25 -34 10 -11 18 -26 18 -33 0 -7 3
-13 8 -13 4 0 21 -28 37 -63 17 -34 33 -63 38 -65 4 -2 7 -16 7 -30 -1 -26 -1
-26 -15 -8 -19 25 -19 18 -1 -25 7 -19 16 -43 21 -54 7 -19 8 -19 18 5 10 25
10 25 14 3 3 -13 8 -23 12 -23 4 0 13 -24 20 -52 7 -29 18 -68 24 -85 8 -25 8
-36 -1 -45 -9 -9 -12 -4 -12 26 0 22 -4 35 -10 31 -13 -8 -13 -52 0 -60 6 -3
10 -17 10 -29 0 -13 7 -29 16 -37 10 -8 13 -21 9 -36 -3 -13 -2 -23 3 -23 4 0
9 12 10 27 3 43 12 40 12 -5 0 -23 5 -42 10 -42 6 0 10 -33 10 -80 0 -47 4
-80 10 -80 6 0 10 -16 10 -35 0 -19 5 -35 10 -35 6 0 10 -13 10 -30 0 -16 5
-30 10 -30 6 0 10 -11 10 -24 0 -14 5 -28 10 -31 6 -3 10 -15 10 -27 0 -23 69
-171 82 -176 4 -2 8 -12 8 -23 0 -10 5 -19 10 -19 6 0 10 -8 10 -17 0 -15 -2
-14 -19 3 -10 10 -17 21 -16 24 2 3 -5 17 -16 30 -38 51 -9 -29 34 -90 13 -19
17 -21 17 -7 0 22 16 22 23 0 4 -10 15 -43 27 -73 13 -36 19 -66 15 -87 -3
-19 -2 -33 4 -33 5 0 12 10 14 23 4 19 4 18 6 -5 0 -16 6 -28 11 -28 6 0 10
-11 10 -25 0 -14 5 -25 10 -25 6 0 10 -9 10 -19 0 -11 5 -23 10 -26 6 -3 10
-15 10 -26 0 -10 5 -19 10 -19 6 0 10 -6 10 -13 0 -7 9 -31 19 -53 11 -21 17
-43 13 -48 -3 -5 -8 -1 -12 9 -4 11 -9 14 -13 8 -7 -11 13 -63 25 -63 4 0 9 8
11 18 2 9 3 5 1 -10 -4 -28 10 -39 19 -15 3 7 6 5 6 -5 1 -10 6 -18 11 -18 6
0 10 -7 10 -15 0 -8 5 -15 10 -15 6 0 10 -6 10 -13 0 -7 9 -23 20 -35 22 -23
26 -42 10 -42 -5 0 -10 5 -10 10 0 6 -5 16 -10 23 -6 7 -22 27 -35 46 -14 19
-25 28 -25 20 0 -8 9 -25 20 -37 11 -12 20 -25 20 -30 0 -15 38 -44 49 -38 16
10 71 -56 65 -76 -5 -17 10 -26 19 -10 2 4 3 2 1 -5 -3 -11 26 -43 39 -43 3 0
4 7 1 15 -4 8 -10 12 -15 9 -5 -3 -9 0 -9 5 0 17 14 13 38 -9 12 -11 25 -20
30 -20 5 0 29 -10 53 -23 48 -25 143 -47 202 -47 19 0 39 -5 42 -10 3 -5 28
-10 55 -10 27 0 52 -4 55 -10 3 -6 48 -10 100 -10 52 0 97 -4 100 -10 3 -5 33
-10 66 -10 33 0 59 -4 59 -10 0 -5 15 -11 33 -11 30 -2 30 -2 5 -6 -47 -7 -31
-23 16 -17 37 4 57 -1 121 -32 66 -32 73 -38 59 -49 -15 -11 -14 -13 14 -26
18 -8 32 -17 32 -21 0 -5 7 -8 15 -8 25 0 17 14 -17 29 -18 8 -27 16 -19 19 7
2 18 -1 24 -7 6 -6 19 -11 29 -11 10 0 18 -4 18 -10 0 -5 8 -10 18 -10 10 0
23 -5 29 -11 14 -14 188 -25 197 -11 4 7 17 7 38 2 35 -11 63 -1 32 11 -17 7
-17 8 4 8 12 1 22 6 22 11 0 6 10 10 21 10 18 0 19 -2 9 -15 -10 -12 -10 -15
4 -15 9 0 16 5 16 10 0 6 6 10 13 10 16 0 76 49 60 50 -25 0 -12 18 45 61 54
41 232 217 232 230 0 12 40 52 46 46 3 -3 -8 -21 -25 -39 -17 -18 -31 -36 -31
-40 0 -17 18 -6 44 24 20 25 25 39 21 60 -5 19 -1 33 9 44 9 8 16 11 16 5 0
-6 4 -11 10 -11 5 0 7 13 4 30 -4 18 -2 30 4 30 5 0 13 12 17 27 3 15 15 39
26 54 10 15 19 32 19 38 0 6 5 11 10 11 6 0 10 9 10 20 0 11 5 20 10 20 6 0
10 9 10 20 0 11 5 20 10 20 6 0 10 8 11 18 0 10 3 12 6 5 9 -24 23 -13 19 15
-2 15 -1 19 1 10 6 -24 23 -23 23 2 0 11 5 20 11 20 5 0 7 5 4 10 -4 6 -1 18
6 26 6 8 10 17 7 20 -3 2 -12 -10 -20 -27 -9 -17 -18 -27 -21 -22 -7 11 15 83
25 83 5 0 8 9 8 19 0 11 5 23 10 26 6 3 10 15 10 26 0 10 5 19 10 19 6 0 10
11 10 25 0 14 5 25 10 25 6 0 10 14 10 30 0 17 5 30 10 30 6 0 11 10 11 23 1
16 2 18 6 5 9 -34 24 -18 17 17 -3 19 -3 43 2 52 10 24 9 22 18 68 10 50 26
105 37 127 5 10 9 29 9 43 0 14 5 25 10 25 6 0 10 16 10 35 0 19 5 35 10 35 6
0 10 23 10 50 0 28 5 50 10 50 6 0 11 12 11 28 2 23 2 24 6 5 7 -39 24 -25 19
15 -3 20 -3 29 0 20 8 -27 18 -22 42 22 23 44 19 52 -9 18 -11 -11 -22 -19
-25 -16 -7 8 15 48 39 69 9 9 17 21 17 28 0 6 5 11 10 11 6 0 10 8 11 18 0 9
3 12 5 5 3 -6 -2 -23 -12 -38 -22 -34 -10 -45 16 -14 14 17 19 33 15 55 -4 20
0 35 9 43 11 9 15 9 18 -1 4 -10 9 -9 21 4 9 9 17 21 17 26 0 6 6 12 13 15 6
2 8 8 4 13 -5 5 -17 -1 -27 -14 -10 -12 -21 -18 -24 -14 -3 5 3 17 14 27 11
10 20 24 20 32 0 7 5 13 10 13 6 0 10 -7 10 -15 0 -8 5 -15 10 -15 13 0 13 13
-1 27 -8 8 -4 21 13 47 12 20 26 36 31 36 13 0 7 -17 -13 -35 -11 -10 -20 -25
-20 -33 0 -12 3 -12 20 3 11 10 17 22 14 26 -3 5 0 9 6 9 8 0 9 10 5 30 -8 34
12 71 26 49 6 -10 11 -10 24 1 23 19 58 70 52 76 -7 7 -57 -44 -57 -58 0 -6
-3 -8 -7 -4 -8 8 26 76 39 76 4 0 8 5 8 11 0 6 7 18 16 27 15 15 16 14 10 -8
-6 -21 -2 -19 29 14 19 22 35 44 35 50 0 6 -12 -2 -25 -17 -19 -21 -25 -24
-25 -11 0 9 8 24 18 33 9 9 26 33 37 54 11 21 28 47 38 57 9 11 17 22 17 25 0
4 7 13 15 22 14 14 15 13 10 -13 -3 -16 -3 -23 1 -17 3 7 19 27 35 44 35 38
39 62 4 29 -18 -17 -25 -19 -25 -9 0 8 9 21 20 29 11 8 20 19 20 25 0 6 16 34
35 62 19 29 35 55 35 58 0 4 8 14 17 23 15 16 16 15 9 -12 l-7 -29 24 29 c13
16 27 38 30 49 6 17 4 17 -13 -4 -11 -13 -20 -18 -20 -12 0 15 20 50 44 79 11
12 16 22 12 22 -4 0 1 12 12 28 10 15 25 42 33 60 8 17 17 32 21 32 5 0 8 8 8
17 0 15 1 15 13 -1 11 -16 15 -13 35 25 21 39 22 71 2 39 -7 -11 -10 -8 -10
13 0 16 4 26 10 22 6 -4 10 6 10 22 0 16 6 35 12 41 10 10 10 17 0 32 -6 11
-12 27 -12 35 0 8 -5 15 -11 15 -6 0 -8 9 -4 23 6 17 5 20 -5 10 -10 -9 -18
-8 -38 7 -27 21 -132 29 -132 10 0 -5 -6 -10 -14 -10 -7 0 -19 -7 -27 -16 -8
-10 -21 -13 -36 -9 -18 4 -31 -4 -63 -37 -22 -24 -40 -49 -40 -55 0 -7 -5 -13
-10 -13 -6 0 -9 -10 -7 -22 2 -13 2 -17 0 -10 -3 6 -9 12 -14 12 -12 0 -12
-27 1 -35 10 -6 -35 -72 -72 -106 -10 -9 -18 -21 -18 -27 0 -6 -3 -12 -8 -14
-4 -1 -25 -28 -47 -58 -22 -30 -42 -57 -45 -60 -16 -16 -70 -90 -70 -98 0 -5
-11 -19 -25 -32 -14 -13 -25 -29 -25 -37 0 -7 -4 -13 -10 -13 -5 0 -10 5 -10
10 0 6 -5 10 -11 10 -8 0 -8 -4 1 -15 10 -12 7 -20 -14 -46 -16 -19 -26 -25
-26 -15 0 8 7 22 16 31 9 9 14 19 11 22 -9 8 -56 -48 -63 -74 -3 -13 -10 -23
-15 -23 -5 0 -7 -10 -4 -23 7 -25 -27 -78 -41 -65 -4 5 3 16 14 27 22 18 29
41 14 41 -4 0 -14 -10 -22 -22 -8 -12 -30 -39 -49 -60 -19 -21 -31 -41 -27
-45 8 -9 46 27 46 44 0 7 5 13 10 13 19 0 10 -27 -20 -58 -17 -18 -30 -34 -30
-37 0 -13 -98 -117 -143 -152 -22 -18 -105 -16 -123 1 -16 16 -19 96 -4 96 6
0 10 10 10 23 0 18 2 19 10 7 8 -13 11 -12 24 5 9 11 16 25 16 32 0 6 5 13 12
15 7 3 9 11 3 24 -7 17 -8 18 -12 1 -3 -9 -8 -15 -13 -12 -4 3 -1 22 6 42 8
21 17 46 21 56 7 21 23 23 23 1 0 -8 5 -12 10 -9 6 4 8 11 5 16 -4 5 -1 9 5 9
12 0 32 48 27 64 -2 6 -12 -5 -22 -24 -12 -23 -20 -30 -23 -20 -3 7 0 16 7 18
6 2 11 15 11 28 0 13 5 24 10 24 6 0 10 9 10 20 0 11 5 20 10 20 6 0 10 10 11
23 0 12 3 16 6 10 9 -24 23 -13 19 15 -2 15 -1 19 1 10 2 -10 9 -18 14 -18 12
0 12 33 -1 46 -9 9 8 75 23 90 4 4 7 16 7 26 0 10 5 18 10 18 6 0 10 9 10 19
0 11 5 23 10 26 6 3 10 15 10 26 0 10 5 19 10 19 6 0 10 11 10 25 0 14 5 25
10 25 6 0 11 10 11 23 1 16 2 18 6 5 9 -34 24 -18 17 17 -3 19 -2 41 3 48 6 6
13 26 17 42 16 66 46 111 46 68 0 -12 7 -6 21 16 14 24 17 37 10 44 -8 8 -11
5 -11 -11 0 -12 -4 -22 -10 -22 -5 0 -10 9 -10 20 0 11 5 20 10 20 6 0 10 11
10 25 0 14 5 25 10 25 6 0 10 11 10 25 0 14 5 25 10 25 6 0 11 12 11 28 2 23
2 24 6 5 8 -42 19 -24 19 32 0 30 5 60 12 67 7 7 12 22 12 35 0 13 5 23 10 23
6 0 10 7 10 15 0 8 5 24 10 35 6 11 15 29 20 40 6 11 10 27 10 35 0 8 5 15 10
15 6 0 10 14 10 30 0 17 5 30 10 30 6 0 10 12 10 26 0 14 4 23 9 20 11 -7 28
150 22 209 -1 22 -8 43 -14 47 -9 5 -9 10 1 20 9 9 12 9 12 -1 0 -7 5 -9 10
-6 6 4 4 12 -6 22 -11 11 -18 13 -23 5 -4 -6 -12 -8 -20 -3 -7 5 -11 13 -7 19
8 14 -33 52 -56 52 -26 0 -22 -18 5 -23 12 -2 -16 -3 -62 -3 -59 1 -85 -3 -88
-11 -3 -7 -11 -13 -19 -13 -8 0 -14 -4 -14 -9 0 -15 -58 -72 -64 -63 -3 5 4
15 15 22 10 8 19 20 19 27 0 7 5 13 11 13 5 0 7 4 4 10 -9 14 -105 -109 -105
-134 0 -17 4 -14 22 14 14 24 23 30 26 21 3 -8 0 -17 -6 -19 -7 -2 -12 -12
-12 -23 0 -10 -4 -19 -10 -19 -5 0 -10 -7 -10 -15 0 -8 -4 -15 -10 -15 -5 0
-10 -9 -10 -19 0 -11 -4 -22 -9 -25 -4 -3 -11 -20 -15 -38 -8 -40 -48 -128
-58 -128 -5 0 -8 7 -8 15 0 8 5 15 10 15 6 0 10 9 10 21 0 11 -4 18 -9 15 -12
-8 -49 -88 -56 -122 l-5 -29 12 25 12 25 4 -35 c2 -19 -1 -36 -7 -38 -6 -2
-11 -12 -11 -23 0 -10 -3 -19 -7 -19 -5 0 -16 -21 -26 -48 -28 -70 -38 -95
-50 -117 -6 -11 -16 -31 -24 -45 -9 -18 -13 -20 -13 -7 0 20 -15 23 -26 5 -4
-6 -2 -14 4 -16 15 -5 16 -48 2 -57 -5 -3 -11 -16 -11 -28 -1 -17 -2 -18 -6
-4 -7 28 -23 20 -19 -10 2 -16 1 -22 -1 -15 -2 6 -9 12 -14 12 -12 0 -11 -24
2 -37 7 -7 7 -17 1 -29 -5 -11 -20 -41 -33 -69 -13 -27 -27 -51 -31 -53 -5 -2
-8 -12 -8 -23 0 -10 -4 -19 -10 -19 -5 0 -10 -6 -10 -14 0 -24 -27 -69 -33
-54 -3 7 -6 -3 -8 -22 -1 -25 -3 -28 -6 -12 -5 23 -23 31 -23 10 0 -7 -9 -24
-20 -38 -21 -27 -26 -50 -10 -50 6 0 10 7 10 15 0 8 5 15 10 15 6 0 10 8 10
17 0 12 3 14 10 7 8 -8 4 -24 -12 -55 -13 -24 -25 -46 -28 -49 -3 -3 -12 -18
-20 -35 -7 -16 -27 -44 -42 -60 -24 -26 -33 -30 -68 -27 -47 5 -62 27 -63 97
-2 59 13 197 23 220 5 11 11 31 14 45 3 14 3 -4 2 -40 -2 -36 -1 -53 1 -37 2
15 9 27 15 27 7 0 9 22 6 63 -3 34 -3 50 -1 35 5 -34 23 -37 23 -5 0 13 3 27
7 31 10 10 13 38 5 50 -4 6 -10 -2 -14 -19 -5 -19 -6 -9 -3 29 2 32 9 64 14
69 6 6 11 21 11 34 0 13 5 23 10 23 6 0 10 11 10 23 0 13 3 27 7 31 11 11 33
79 33 104 0 12 4 22 9 22 5 0 12 12 14 28 l4 27 2 -27 c0 -16 6 -28 12 -28 7
0 9 16 4 49 -4 29 -3 51 3 55 6 3 13 40 17 81 4 42 11 78 16 81 5 3 9 16 9 29
0 13 5 27 10 30 6 3 10 17 10 31 0 13 4 32 9 42 11 22 31 106 31 132 0 11 5
20 10 20 6 0 10 14 10 30 0 17 5 30 10 30 6 0 10 14 10 30 0 17 5 30 11 30 5
0 9 8 8 18 -3 28 13 122 22 128 5 3 9 16 9 30 0 13 5 24 10 24 6 0 10 15 10
34 0 19 5 38 10 41 6 3 10 33 10 65 0 32 -4 62 -10 65 -5 3 -10 13 -10 21 0
17 -64 84 -80 84 -5 0 -10 5 -10 10 0 14 13 13 28 -2 6 -6 15 -8 19 -4 15 15
-20 22 -121 24 -100 3 -105 2 -130 -23z"/>
<path d="M2640 6039 c0 -115 4 -189 10 -195 10 -10 9 -164 -5 -643 -4 -122 -2
-188 5 -195 5 -5 10 -34 10 -64 0 -33 5 -59 14 -68 24 -24 86 -15 86 12 0 19
-16 18 -24 -2 -3 -9 -15 -14 -28 -12 -20 3 -24 12 -32 63 -5 33 -8 157 -7 275
5 548 -4 989 -21 1006 -5 4 -8 -76 -8 -177z"/>
<path d="M4360 1960 c0 -5 -6 -10 -14 -10 -17 0 -26 -22 -19 -48 2 -11 0 -23
-6 -26 -13 -9 -14 -75 -2 -95 14 -22 -5 -50 -29 -44 -11 3 -36 2 -55 -1 l-36
-7 3 -82 3 -82 63 -3 62 -3 0 -114 c0 -65 4 -116 10 -120 6 -3 10 -22 10 -41
0 -19 5 -34 10 -34 6 0 10 -7 10 -15 0 -39 69 -135 97 -135 7 0 13 -4 13 -10
0 -5 14 -10 30 -10 17 0 30 -4 30 -10 0 -13 37 -13 45 0 3 6 17 10 30 10 13 0
26 4 29 9 3 5 25 12 48 15 49 8 81 24 61 33 -8 3 -13 25 -13 60 0 83 -33 102
-116 66 -40 -17 -76 -18 -106 -2 -16 9 -18 27 -17 167 0 86 3 151 6 145 3 -9
32 -13 93 -13 82 0 89 2 104 25 20 30 21 123 2 148 -11 14 -29 17 -98 17 -52
0 -89 -5 -96 -12 -9 -9 -12 12 -12 95 l0 107 -65 0 c-37 0 -65 -4 -65 -10 0
-5 -10 -10 -22 -10 -21 0 -21 0 -2 15 12 9 42 14 82 15 34 0 62 4 62 10 0 6
-28 10 -65 10 -37 0 -65 -4 -65 -10z"/>
<path d="M633 1885 c-15 -17 -17 -125 -3 -125 6 0 10 -7 10 -15 0 -20 -16 -19
-24 1 -3 9 -6 42 -6 75 0 33 -4 59 -10 59 -5 0 -10 -25 -10 -56 0 -42 6 -64
25 -92 22 -32 30 -35 26 -9 0 4 89 7 199 7 127 0 200 4 200 10 0 6 5 10 12 10
7 0 -8 -20 -32 -45 -31 -31 -50 -43 -62 -39 -10 3 -18 2 -18 -3 0 -4 -16 -25
-35 -45 -35 -36 -44 -58 -25 -58 6 0 10 5 10 10 0 12 69 84 75 78 4 -3 -82
-102 -223 -257 -42 -46 -78 -90 -80 -98 -2 -7 -8 -13 -13 -13 -5 0 -9 -13 -9
-30 0 -16 -4 -30 -10 -30 -6 0 -10 -27 -10 -60 0 -33 4 -60 10 -60 6 0 10 -8
10 -17 -1 -16 -2 -16 -15 1 -18 24 -20 137 -4 153 7 7 8 17 1 28 -8 15 -11 13
-21 -15 -14 -41 -15 -150 -1 -150 6 0 10 -6 10 -13 0 -7 13 -26 30 -42 27 -26
33 -27 82 -22 29 4 54 10 55 14 2 5 58 7 124 5 77 -2 126 1 132 7 6 6 53 11
108 11 55 0 101 4 104 10 4 6 -32 10 -99 10 -60 0 -106 -4 -106 -9 0 -6 -59
-12 -132 -15 -73 -3 -161 -8 -195 -11 -43 -5 -63 -3 -63 4 0 7 21 11 53 11 29
0 57 4 63 9 8 9 95 15 389 26 61 2 116 4 123 4 14 1 16 37 2 46 -6 4 -10 -5
-10 -21 0 -15 -3 -25 -6 -21 -3 3 -3 24 1 47 l7 42 27 -26 c15 -15 34 -25 42
-23 8 2 11 2 7 0 -17 -10 -7 -24 12 -18 11 4 29 0 42 -9 12 -9 32 -16 45 -16
12 0 25 -4 28 -10 8 -12 102 -13 109 -1 3 4 28 11 56 15 27 4 50 11 50 16 0 6
10 10 23 9 12 0 16 -3 10 -6 -20 -8 -15 -23 7 -23 21 0 29 35 10 42 -6 2 -2 8
8 15 18 11 19 9 11 -30 -8 -46 -4 -59 12 -37 9 12 10 12 5 -3 -3 -10 0 -25 8
-33 19 -18 70 -18 86 1 15 18 64 10 104 -18 24 -17 33 -19 60 -9 18 7 49 12
69 12 20 0 39 5 42 10 4 6 -13 10 -44 10 -28 0 -51 -4 -51 -10 0 -5 -10 -10
-23 -10 -26 0 -77 21 -77 33 0 11 18 8 26 -4 4 -7 20 -8 43 -4 20 4 61 8 92 9
30 1 60 6 67 10 14 9 16 102 2 111 -5 3 -11 -21 -13 -57 l-3 -63 -2 68 c-1 42
-6 66 -12 62 -6 -4 -10 25 -10 79 0 51 4 86 10 86 6 0 10 29 10 66 0 41 -4 63
-10 59 -5 -3 -10 1 -10 10 0 10 5 13 12 9 8 -5 9 -2 5 9 -4 11 2 24 15 37 25
23 38 26 38 8 0 -10 3 -10 9 0 6 11 17 6 44 -22 37 -36 72 -47 80 -23 2 6 8 8
13 4 5 -5 -1 -17 -15 -28 -15 -12 -18 -19 -9 -19 24 0 50 34 36 48 -6 6 -8 15
-4 19 4 4 11 1 17 -7 6 -10 7 -5 3 18 -4 21 -3 32 5 32 6 0 11 11 11 25 0 27
-27 65 -46 65 -6 0 -29 16 -50 35 -31 29 -46 35 -81 35 -24 0 -43 -4 -43 -10
0 -5 -13 -10 -29 -10 -17 0 -33 5 -36 10 -8 13 -141 13 -166 0 -14 -8 -19 -21
-19 -48 0 -21 4 -42 9 -48 9 -9 15 -243 12 -439 l-1 -100 -20 25 c-17 22 -20
41 -20 146 0 111 -13 225 -28 249 -10 16 -15 38 -15 73 0 17 -4 32 -9 32 -4 0
-8 -6 -8 -12 0 -7 -8 -1 -17 12 -19 28 -49 56 -66 64 -9 3 -8 7 2 14 12 9 12
13 -3 27 -15 15 -21 16 -42 5 -19 -10 -32 -11 -63 -2 -51 16 -177 15 -223 -1
-36 -13 -61 -29 -122 -77 -51 -41 -56 -47 -56 -75 0 -17 15 -40 46 -71 l45
-46 34 35 c19 19 36 30 38 24 2 -7 11 -5 26 5 17 12 41 16 95 13 39 -1 52 -1
29 2 -24 2 -43 8 -43 14 0 15 -60 10 -77 -6 -8 -9 -18 -14 -20 -11 -12 11 28
36 56 36 17 0 31 5 31 10 0 6 27 10 60 10 33 0 60 -4 60 -10 0 -5 5 -10 11
-10 12 0 59 -50 59 -62 0 -13 -18 -9 -23 5 -4 10 -6 10 -6 0 -1 -15 -31 -18
-31 -3 0 6 -33 10 -80 10 -47 0 -80 -4 -80 -10 0 -5 -18 -10 -40 -10 -22 0
-40 -4 -40 -10 0 -5 -6 -10 -14 -10 -8 0 -16 -3 -18 -7 -8 -17 -78 -76 -78
-66 0 7 7 19 16 28 9 9 14 18 11 21 -3 3 -14 -4 -24 -16 -10 -12 -24 -28 -30
-35 -7 -8 -13 -18 -13 -24 0 -15 17 -14 23 2 2 6 8 9 12 4 5 -4 3 -13 -3 -19
-18 -18 -15 -124 4 -153 9 -13 14 -30 11 -37 -3 -8 -6 -6 -6 5 -1 10 -5 15
-11 12 -6 -3 -10 4 -10 16 0 38 -23 6 -31 -43 l-6 -43 -2 43 c0 23 -6 42 -12
42 -6 0 -9 7 -5 15 8 22 -4 45 -23 45 -9 0 -21 4 -27 10 -5 5 -24 6 -49 0 -22
-5 -77 -10 -122 -10 -79 0 -81 1 -76 23 3 12 1 18 -4 12 -4 -6 -21 -21 -37
-33 l-29 -22 122 0 c74 0 121 4 121 10 0 6 18 10 40 10 22 0 40 -4 40 -9 0 -5
10 -11 23 -13 12 -3 -63 -5 -167 -6 -104 -2 -194 -5 -200 -9 -6 -3 16 23 49
58 33 35 62 66 64 69 2 3 1 -5 -2 -17 -3 -13 -4 -23 -2 -23 7 0 61 58 73 78
15 26 15 32 2 32 -5 0 -10 -5 -10 -10 0 -6 -11 -22 -25 -36 -16 -16 -25 -20
-25 -11 0 7 12 24 26 38 14 13 35 41 47 61 11 21 24 38 29 38 4 0 8 5 8 10 0
21 73 90 90 85 19 -6 74 47 68 66 -5 15 -48 -28 -48 -48 0 -7 -4 -13 -10 -13
-18 0 -10 25 20 60 16 19 30 41 30 48 0 6 5 12 10 12 6 0 10 33 10 80 l0 80
-297 0 c-245 -1 -300 -3 -310 -15z m1090 -512 c10 -9 -51 -64 -88 -82 -17 -7
-38 -17 -47 -22 -10 -5 -25 -9 -33 -9 -8 0 -15 -4 -15 -10 0 -16 -33 -11 -56
8 -23 18 -44 69 -37 90 3 6 18 12 33 12 16 0 32 5 35 10 7 11 198 14 208 3z"/>
<path d="M3245 1760 c-3 -5 -36 -10 -73 -10 -117 0 -108 14 -104 -178 2 -92 8
-168 13 -170 13 -5 11 -172 -1 -172 -6 0 -10 -30 -10 -70 0 -43 4 -70 11 -70
5 0 9 -8 7 -18 -4 -28 20 -52 53 -52 45 0 43 17 -4 26 l-42 8 39 4 c21 2 43
-1 49 -7 14 -14 84 -14 92 -1 4 6 -13 10 -44 10 -28 0 -51 5 -51 10 0 6 22 10
49 10 l49 0 0 232 c1 221 2 232 22 252 17 17 22 18 29 7 7 -11 9 -11 14 0 4
11 6 11 6 1 1 -7 5 -11 9 -8 5 3 22 -8 37 -24 16 -17 36 -30 45 -30 19 0 60
40 60 58 0 7 5 12 10 12 6 0 10 16 10 35 0 25 -7 39 -25 52 -14 10 -43 33 -63
50 -29 25 -46 33 -79 33 -23 0 -45 -4 -48 -10 -8 -13 -65 -13 -65 1 0 5 8 9
18 8 31 -3 43 1 37 11 -3 6 -15 10 -25 10 -10 0 -22 -4 -25 -10z"/>
<path d="M3660 1748 c-19 -11 -38 -26 -43 -33 -4 -8 -23 -23 -42 -35 -32 -20
-35 -25 -35 -71 0 -27 5 -49 10 -49 6 0 10 -5 10 -11 0 -7 10 -20 22 -30 11
-11 18 -22 15 -26 -4 -3 -16 4 -26 16 -11 13 -25 21 -31 19 -6 -2 -2 -13 11
-26 15 -17 28 -22 45 -18 14 4 24 2 24 -4 0 -7 9 -9 22 -4 17 5 12 -4 -20 -34
-23 -22 -42 -48 -42 -56 0 -9 -4 -16 -10 -16 -5 0 -11 -30 -13 -67 l-3 -68 -2
68 c-2 83 -22 90 -22 7 0 -59 24 -129 51 -145 19 -12 23 4 6 23 -10 10 -17 27
-16 38 0 14 2 15 6 4 3 -8 14 -27 24 -41 14 -20 16 -29 6 -39 -10 -10 -7 -11
13 -6 14 3 19 3 13 0 -23 -10 -14 -25 11 -18 16 4 34 0 48 -10 12 -9 35 -16
50 -16 16 0 28 -5 28 -11 0 -7 17 -9 48 -6 69 7 152 28 152 38 0 5 9 9 20 9
13 0 18 -5 14 -15 -4 -9 0 -15 9 -15 8 0 18 7 21 16 8 22 8 22 -9 26 -13 2
-12 6 5 16 18 11 20 10 20 -19 0 -42 21 -59 72 -59 24 0 48 -4 54 -9 5 -4 24
-11 43 -15 26 -5 31 -3 24 7 -6 6 -13 24 -17 40 -3 15 -11 27 -16 27 -6 0 -10
59 -10 150 0 93 -4 150 -10 150 -6 0 -9 23 -9 53 1 28 4 42 6 30 5 -26 23 -31
23 -8 0 9 -7 32 -15 52 -8 20 -15 66 -15 105 0 44 -4 67 -10 63 -5 -3 -10 -30
-10 -58 0 -37 -3 -48 -10 -37 -6 10 -10 11 -10 3 0 -22 -16 -14 -28 12 -7 15
-8 25 -2 25 6 0 10 5 10 10 0 6 -11 8 -25 4 -29 -7 -64 14 -44 27 15 9 -1 26
-44 48 -21 11 -30 12 -39 3 -9 -9 -7 -12 10 -12 12 0 22 -4 22 -10 0 -5 7 -10
15 -10 8 0 15 -4 15 -10 0 -12 -13 -13 -25 -2 -20 18 -95 32 -165 32 -68 0
-148 -15 -160 -31 -3 -3 -16 -12 -28 -18 -13 -7 -41 -29 -63 -48 -21 -19 -39
-31 -39 -26 0 13 76 83 90 83 5 0 10 5 10 10 0 6 6 10 13 10 17 1 50 27 40 33
-4 2 -24 -5 -43 -15z m350 -378 c0 -5 -4 -10 -9 -10 -5 0 -13 -9 -16 -20 -3
-11 -13 -20 -21 -20 -8 0 -14 -4 -14 -10 0 -5 -7 -10 -15 -10 -8 0 -15 -4 -15
-10 0 -5 -11 -10 -24 -10 -14 0 -27 -4 -30 -9 -10 -16 -74 -22 -96 -9 -36 23
-24 98 15 98 13 0 27 5 30 10 3 6 48 10 101 10 56 0 94 -4 94 -10z"/>
<path d="M2451 1731 l-35 -6 3 -205 c1 -113 7 -206 12 -208 12 -5 12 -52 -1
-52 -5 0 -10 9 -10 20 0 11 -4 20 -10 20 -14 0 -13 -20 3 -53 13 -29 27 -36
27 -12 0 27 15 15 36 -30 16 -32 18 -47 10 -55 -8 -8 -4 -10 14 -5 19 4 31 0
45 -15 10 -11 36 -23 57 -26 21 -4 41 -11 44 -15 3 -5 30 -9 60 -9 30 0 54 -4
54 -10 0 -5 -25 -10 -55 -10 -30 0 -55 -4 -55 -10 0 -5 24 -10 54 -10 30 0 58
5 61 10 3 6 22 10 41 10 19 0 34 5 34 10 0 6 -16 10 -35 10 -19 0 -35 5 -35
10 0 6 15 10 33 10 17 0 41 7 51 15 26 20 36 19 36 -3 0 -10 5 -23 12 -30 8
-8 8 -12 1 -12 -6 0 -13 7 -17 15 -5 15 -36 22 -35 8 0 -5 18 -23 41 -40 40
-33 81 -43 93 -23 3 6 19 10 36 10 16 0 29 5 29 10 0 13 -46 13 -70 0 -12 -6
-27 -6 -42 -1 -21 9 -19 10 14 10 20 1 40 6 44 12 4 6 20 9 38 6 l31 -5 -9
122 c-4 66 -9 212 -11 324 -1 111 -5 205 -9 210 -4 4 -35 7 -68 7 -82 0 -98
-19 -98 -122 0 -41 5 -94 11 -119 9 -34 9 -48 0 -57 -6 -6 -11 -26 -11 -45 0
-37 -24 -72 -33 -48 -4 10 -23 -3 -61 -40 -31 -30 -56 -57 -56 -59 0 -17 31 2
68 39 23 25 42 38 42 31 0 -7 -19 -30 -42 -49 -33 -29 -50 -36 -83 -36 -58 0
-102 43 -96 93 1 9 -3 17 -8 17 -8 0 -11 64 -11 194 0 192 0 194 -22 200 -27
7 -69 6 -117 -3z"/>
</g>
</svg>
